<mxfile host="app.diagrams.net" modified="2020-06-08T08:38:10.211Z" agent="5.0 (Windows)" etag="gRLrGUnzStcz7wnPiSrm" version="13.1.14" type="github">
  <diagram id="C5RBs43oDa-KdzZeNtuy" name="Page-1">
    <mxGraphModel dx="1360" dy="831" grid="1" gridSize="10" guides="1" tooltips="1" connect="1" arrows="1" fold="1" page="1" pageScale="1" pageWidth="827" pageHeight="1169" math="0" shadow="0">
      <root>
        <mxCell id="WIyWlLk6GJQsqaUBKTNV-0" />
        <mxCell id="WIyWlLk6GJQsqaUBKTNV-1" parent="WIyWlLk6GJQsqaUBKTNV-0" />
        <mxCell id="UHl8TuzawzKdXd-lmloS-2" value="&lt;div&gt;vol2-Profile &lt;br&gt;&lt;/div&gt;&lt;div&gt;already know?&lt;/div&gt;" style="whiteSpace=wrap;html=1;" parent="WIyWlLk6GJQsqaUBKTNV-1" vertex="1">
          <mxGeometry x="359" y="90" width="110" height="60" as="geometry" />
        </mxCell>
        <mxCell id="UHl8TuzawzKdXd-lmloS-18" value="" style="edgeStyle=orthogonalEdgeStyle;rounded=0;orthogonalLoop=1;jettySize=auto;html=1;fontColor=#000000;" parent="WIyWlLk6GJQsqaUBKTNV-1" source="UHl8TuzawzKdXd-lmloS-7" target="UHl8TuzawzKdXd-lmloS-17" edge="1">
          <mxGeometry relative="1" as="geometry" />
        </mxCell>
        <mxCell id="UHl8TuzawzKdXd-lmloS-7" value="&lt;div align=&quot;left&quot;&gt;Get basic overview&lt;br&gt;&lt;br&gt;Tool: vol2&lt;br&gt;Com: pstree&lt;br&gt;&lt;/div&gt;" style="whiteSpace=wrap;html=1;align=left;" parent="WIyWlLk6GJQsqaUBKTNV-1" vertex="1">
          <mxGeometry x="359" y="90" width="110" height="60" as="geometry" />
        </mxCell>
        <mxCell id="UHl8TuzawzKdXd-lmloS-25" style="edgeStyle=orthogonalEdgeStyle;rounded=0;orthogonalLoop=1;jettySize=auto;html=1;exitX=0.5;exitY=1;exitDx=0;exitDy=0;entryX=0.5;entryY=0;entryDx=0;entryDy=0;fontColor=#FFFFFF;" parent="WIyWlLk6GJQsqaUBKTNV-1" source="UHl8TuzawzKdXd-lmloS-17" target="UHl8TuzawzKdXd-lmloS-24" edge="1">
          <mxGeometry relative="1" as="geometry" />
        </mxCell>
        <mxCell id="UHl8TuzawzKdXd-lmloS-17" value="&lt;div align=&quot;left&quot;&gt;Check details &lt;br&gt;&lt;br&gt;Tool: vol2&lt;br&gt;Com: pstree -v&lt;br&gt;&lt;/div&gt;" style="whiteSpace=wrap;html=1;align=left;" parent="WIyWlLk6GJQsqaUBKTNV-1" vertex="1">
          <mxGeometry x="359" y="180" width="110" height="60" as="geometry" />
        </mxCell>
        <mxCell id="UHl8TuzawzKdXd-lmloS-16" value="&lt;div&gt;Possible Anomalies:&lt;/div&gt;&lt;ul&gt;&lt;li&gt;Look-Alikes&lt;/li&gt;&lt;li&gt;Wrong hierachy&lt;/li&gt;&lt;li&gt;Strange command params&lt;/li&gt;&lt;li&gt;File-Path&lt;/li&gt;&lt;li&gt;Multiple occourences&lt;br&gt;&lt;/li&gt;&lt;/ul&gt;" style="text;html=1;strokeColor=none;fillColor=none;align=left;verticalAlign=middle;rounded=0;labelBorderColor=#000000;whiteSpace=wrap;fontColor=#000000;labelBackgroundColor=#E6E6E6;spacing=3;spacingLeft=0;" parent="WIyWlLk6GJQsqaUBKTNV-1" vertex="1">
          <mxGeometry x="134" y="180" width="200" height="20" as="geometry" />
        </mxCell>
        <mxCell id="UHl8TuzawzKdXd-lmloS-20" style="edgeStyle=orthogonalEdgeStyle;rounded=0;orthogonalLoop=1;jettySize=auto;html=1;exitX=0.5;exitY=1;exitDx=0;exitDy=0;entryX=0.5;entryY=0;entryDx=0;entryDy=0;fontColor=#000000;" parent="WIyWlLk6GJQsqaUBKTNV-1" source="UHl8TuzawzKdXd-lmloS-19" target="UHl8TuzawzKdXd-lmloS-7" edge="1">
          <mxGeometry relative="1" as="geometry">
            <mxPoint x="414" y="90" as="targetPoint" />
          </mxGeometry>
        </mxCell>
        <mxCell id="UHl8TuzawzKdXd-lmloS-19" value="" style="ellipse;whiteSpace=wrap;html=1;aspect=fixed;labelBackgroundColor=#E6E6E6;fontColor=#000000;align=left;" parent="WIyWlLk6GJQsqaUBKTNV-1" vertex="1">
          <mxGeometry x="399" y="30" width="30" height="30" as="geometry" />
        </mxCell>
        <mxCell id="UHl8TuzawzKdXd-lmloS-23" value="&lt;div&gt;Always write down every anomaly&lt;/div&gt;&lt;div&gt;you find and later go back to it!&lt;/div&gt;" style="text;html=1;strokeColor=none;fillColor=none;align=left;verticalAlign=middle;rounded=0;labelBorderColor=#000000;whiteSpace=wrap;fontColor=#FFFFFF;labelBackgroundColor=#CC0000;spacing=3;spacingLeft=0;perimeterSpacing=0;" parent="WIyWlLk6GJQsqaUBKTNV-1" vertex="1">
          <mxGeometry x="494" y="200" width="200" height="20" as="geometry" />
        </mxCell>
        <mxCell id="UHl8TuzawzKdXd-lmloS-26" style="edgeStyle=orthogonalEdgeStyle;rounded=0;orthogonalLoop=1;jettySize=auto;html=1;exitX=0.5;exitY=1;exitDx=0;exitDy=0;entryX=0.5;entryY=0;entryDx=0;entryDy=0;fontColor=#FFFFFF;" parent="WIyWlLk6GJQsqaUBKTNV-1" source="UHl8TuzawzKdXd-lmloS-24" target="GR1_VuBNANUqsm3GvZzp-0" edge="1">
          <mxGeometry relative="1" as="geometry">
            <mxPoint x="414" y="370" as="targetPoint" />
          </mxGeometry>
        </mxCell>
        <mxCell id="UHl8TuzawzKdXd-lmloS-24" value="&lt;div align=&quot;left&quot;&gt;Look for hidden processes&lt;br&gt;&lt;br&gt;Tool: vol2&lt;br&gt;Com: psxview&lt;br&gt;&lt;/div&gt;" style="whiteSpace=wrap;html=1;align=left;" parent="WIyWlLk6GJQsqaUBKTNV-1" vertex="1">
          <mxGeometry x="359" y="270" width="110" height="70" as="geometry" />
        </mxCell>
        <mxCell id="GR1_VuBNANUqsm3GvZzp-2" value="" style="group" vertex="1" connectable="0" parent="WIyWlLk6GJQsqaUBKTNV-1">
          <mxGeometry x="399" y="370" width="30" height="30" as="geometry" />
        </mxCell>
        <mxCell id="GR1_VuBNANUqsm3GvZzp-0" value="" style="ellipse;whiteSpace=wrap;html=1;aspect=fixed;labelBackgroundColor=#E6E6E6;fontColor=#000000;align=left;" vertex="1" parent="GR1_VuBNANUqsm3GvZzp-2">
          <mxGeometry width="30" height="30" as="geometry" />
        </mxCell>
        <mxCell id="GR1_VuBNANUqsm3GvZzp-1" value="" style="ellipse;whiteSpace=wrap;html=1;aspect=fixed;labelBackgroundColor=#E6E6E6;fontColor=#000000;align=left;" vertex="1" parent="GR1_VuBNANUqsm3GvZzp-2">
          <mxGeometry x="5" y="5" width="20" height="20" as="geometry" />
        </mxCell>
      </root>
    </mxGraphModel>
  </diagram>
</mxfile>
